<svg width="35" height="139" viewBox="0 0 35 139" fill="none" xmlns="http://www.w3.org/2000/svg">
<path d="M24 25.4008H7.578V21.0768H24V25.4008ZM24 17.9213H7.578V13.5973H20.481V0.993299H24V17.9213Z" fill="black"/>
<path d="M20 44.9863H4.07V42.5563H20V44.9863ZM20 41.7463H4.07V40.9363H20V41.7463ZM20 40.1263H4.07V37.6963H20V40.1263ZM20 35.2663H4.07V34.4563H20V35.2663ZM20 33.6463H4.07V32.8363H20V33.6463Z" fill="black"/>
<path d="M21.01 122.942V132.556L24 134.005V138.789L7.578 130.463V124.943L24 116.663V121.47L21.01 122.942ZM17.698 124.552L11.304 127.68V127.818L17.698 130.923V124.552ZM13.811 101.185C13.259 101.247 12.7453 101.477 12.27 101.875C11.7793 102.259 11.3807 102.826 11.074 103.577C10.7673 104.313 10.614 105.21 10.614 106.268C10.614 108.124 11.0587 109.557 11.948 110.569C12.8373 111.566 14.1177 112.064 15.789 112.064C17.4603 112.064 18.7407 111.566 19.63 110.569C20.5193 109.557 20.964 108.124 20.964 106.268C20.964 104.658 20.642 103.432 19.998 102.588C19.3387 101.73 18.48 101.262 17.422 101.185V95.9875C19.676 96.0488 21.4163 96.9688 22.643 98.7475C23.8697 100.526 24.483 103.033 24.483 106.268C24.483 109.58 23.7547 112.172 22.298 114.042C20.8413 115.898 18.6717 116.825 15.789 116.825C12.9063 116.825 10.7367 115.898 9.28 114.042C7.82333 112.172 7.095 109.58 7.095 106.268C7.095 104.137 7.36333 102.32 7.9 100.817C8.43667 99.2995 9.211 98.1418 10.223 97.3445C11.2197 96.5318 12.4157 96.0948 13.811 96.0335V101.185ZM13.811 78.3876C13.259 78.4489 12.7453 78.6789 12.27 79.0776C11.7793 79.4609 11.3807 80.0283 11.074 80.7796C10.7673 81.5156 10.614 82.4126 10.614 83.4706C10.614 85.3259 11.0587 86.7596 11.948 87.7716C12.8373 88.7683 14.1177 89.2666 15.789 89.2666C17.4603 89.2666 18.7407 88.7683 19.63 87.7716C20.5193 86.7596 20.964 85.3259 20.964 83.4706C20.964 81.8606 20.642 80.6339 19.998 79.7906C19.3387 78.9319 18.48 78.4643 17.422 78.3876V73.1896C19.676 73.2509 21.4163 74.1709 22.643 75.9496C23.8697 77.7283 24.483 80.2353 24.483 83.4706C24.483 86.7826 23.7547 89.3739 22.298 91.2446C20.8413 93.0999 18.6717 94.0276 15.789 94.0276C12.9063 94.0276 10.7367 93.0999 9.28 91.2446C7.82333 89.3739 7.095 86.7826 7.095 83.4706C7.095 81.3393 7.36333 79.5223 7.9 78.0196C8.43667 76.5016 9.211 75.3439 10.223 74.5466C11.2197 73.7339 12.4157 73.2969 13.811 73.2356V78.3876ZM7.578 51.5877H17.238C19.8447 51.5877 21.7077 52.4157 22.827 54.0717C23.931 55.7124 24.483 58.0584 24.483 61.1097C24.483 64.1611 23.931 66.5147 22.827 68.1707C21.7077 69.8114 19.8447 70.6317 17.238 70.6317H7.578L7.578 66.3078H17.169C18.5183 66.3078 19.492 65.8554 20.09 64.9507C20.6727 64.0461 20.964 62.7657 20.964 61.1097C20.964 59.4691 20.6727 58.1964 20.09 57.2917C19.492 56.3717 18.5183 55.9117 17.169 55.9117H7.578V51.5877Z" fill="black"/>
</svg>
