<svg width="35" height="150" viewBox="0 0 35 150" fill="none" xmlns="http://www.w3.org/2000/svg">
<path d="M7.578 82.9933H24V87.9613L12.73 97.8973V98.0123H24V102.129H7.578V97.0463L18.71 87.2483V87.1333H7.578V82.9933ZM11.143 61.6781V69.0381H24V73.3621H11.143L11.143 80.6991H7.578V61.6781H11.143ZM21.01 48.2439V57.8579L24 59.3069V64.0909L7.578 55.7649V50.2449L24 41.9649V46.7719L21.01 48.2439ZM17.698 49.8539L11.304 52.9819V53.1199L17.698 56.2249V49.8539ZM13.811 26.4877C13.259 26.549 12.7453 26.779 12.27 27.1777C11.7793 27.561 11.3807 28.1284 11.074 28.8797C10.7673 29.6157 10.614 30.5127 10.614 31.5707C10.614 33.426 11.0587 34.8597 11.948 35.8717C12.8373 36.8684 14.1177 37.3667 15.789 37.3667C17.4603 37.3667 18.7407 36.8684 19.63 35.8717C20.5193 34.8597 20.964 33.426 20.964 31.5707C20.964 29.9607 20.642 28.734 19.998 27.8907C19.3387 27.032 18.48 26.5644 17.422 26.4877V21.2897C19.676 21.351 21.4163 22.271 22.643 24.0497C23.8697 25.8284 24.483 28.3354 24.483 31.5707C24.483 34.8827 23.7547 37.474 22.298 39.3447C20.8413 41.2 18.6717 42.1277 15.789 42.1277C12.9063 42.1277 10.7367 41.2 9.28 39.3447C7.82333 37.474 7.095 34.8827 7.095 31.5707C7.095 29.4394 7.36333 27.6224 7.9 26.1197C8.43667 24.6017 9.211 23.444 10.223 22.6467C11.2197 21.834 12.4157 21.397 13.811 21.3357V26.4877ZM11.143 1.01107V8.37107H24V12.6951H11.143L11.143 20.0321H7.578L7.578 1.01107H11.143Z" fill="white"/>
<path d="M20 121.986H4.07V119.556H20V121.986ZM20 118.746H4.07V117.936H20V118.746ZM20 117.126H4.07V114.696H20V117.126ZM20 113.886H4.07V113.076H20V113.886ZM20 110.646H4.07V109.836H20V110.646Z" fill="white"/>
<path d="M13.811 133.27C13.259 133.331 12.7453 133.561 12.27 133.96C11.7793 134.343 11.3807 134.911 11.074 135.662C10.7673 136.398 10.614 137.295 10.614 138.353C10.614 140.208 11.0587 141.642 11.948 142.654C12.8373 143.651 14.1177 144.149 15.789 144.149C17.4603 144.149 18.7407 143.651 19.63 142.654C20.5193 141.642 20.964 140.208 20.964 138.353C20.964 136.743 20.642 135.516 19.998 134.673C19.3387 133.814 18.48 133.347 17.422 133.27V128.072C19.676 128.133 21.4163 129.053 22.643 130.832C23.8697 132.611 24.483 135.118 24.483 138.353C24.483 141.665 23.7547 144.256 22.298 146.127C20.8413 147.982 18.6717 148.91 15.789 148.91C12.9063 148.91 10.7367 147.982 9.28 146.127C7.82333 144.256 7.095 141.665 7.095 138.353C7.095 136.222 7.36333 134.405 7.9 132.902C8.43667 131.384 9.211 130.226 10.223 129.429C11.2197 128.616 12.4157 128.179 13.811 128.118V133.27Z" fill="white"/>
</svg>
