<svg width="44" height="153" viewBox="0 0 44 153" fill="none" xmlns="http://www.w3.org/2000/svg">
<path d="M15.643 21.8734V29.2334H28.5V33.5574H15.643V40.8944H12.078V21.8734H15.643ZM17.046 6.74153C16.172 6.83353 15.5587 7.27053 15.206 8.05253C14.8533 8.81919 14.677 9.93086 14.677 11.3875C14.677 12.7829 14.8303 13.8102 15.137 14.4695C15.4437 15.1289 15.9037 15.4585 16.517 15.4585C17.0077 15.4585 17.3603 15.2745 17.575 14.9065C17.7743 14.5385 17.92 13.9329 18.012 13.0895L18.564 6.74153C18.7327 4.93219 19.2003 3.56753 19.967 2.64753C20.7337 1.71219 21.9143 1.24453 23.509 1.24453C24.9043 1.24453 26.0083 1.62786 26.821 2.39453C27.6183 3.14586 28.178 4.23453 28.5 5.66053C28.822 7.08653 28.983 8.89586 28.983 11.0885C28.983 13.2045 28.8143 14.9602 28.477 16.3555C28.1243 17.7509 27.511 18.8395 26.637 19.6215C25.763 20.3882 24.5517 20.7945 23.003 20.8405V15.9185C24.0917 15.7959 24.843 15.3282 25.257 14.5155C25.6557 13.6875 25.855 12.4839 25.855 10.9045C25.855 9.34053 25.6863 8.18286 25.349 7.43153C25.0117 6.68019 24.498 6.30453 23.808 6.30453C23.2253 6.30453 22.8113 6.50386 22.566 6.90253C22.3053 7.28586 22.1367 7.85319 22.06 8.60453L21.439 14.8375C21.255 16.6622 20.8103 18.0422 20.105 18.9775C19.3997 19.9129 18.288 20.3805 16.77 20.3805C14.9147 20.3805 13.5883 19.5909 12.791 18.0115C11.9937 16.4322 11.595 14.1705 11.595 11.2265C11.595 8.26719 12.0013 5.97486 12.814 4.34953C13.6267 2.72419 15.0373 1.88086 17.046 1.81953V6.74153Z" fill="black"/>
<path d="M24.5 59.9863H8.57V57.5563H24.5V59.9863ZM24.5 56.7463H8.57V55.9363H24.5V56.7463ZM24.5 55.1263H8.57V52.6963H24.5V55.1263ZM24.5 50.2663H8.57V49.4563H24.5V50.2663ZM24.5 48.6463H8.57V47.8363H24.5V48.6463Z" fill="black"/>
<path d="M21.692 66.9303C24.314 66.9303 26.1847 67.72 27.304 69.2993C28.4233 70.8633 28.983 73.0867 28.983 75.9693C28.983 78.8367 28.431 81.0447 27.327 82.5933C26.2077 84.142 24.3293 84.9163 21.692 84.9163H20.335V80.5923H21.715C24.2143 80.5923 25.464 79.0513 25.464 75.9693C25.464 74.4973 25.165 73.3473 24.567 72.5193C23.969 71.676 23.0183 71.2543 21.715 71.2543H12.078V66.9303H21.692Z" fill="black"/>
<path d="M24.5 103.986H8.57V101.556H24.5V103.986ZM24.5 100.746H8.57V99.9363H24.5V100.746ZM24.5 99.1263H8.57V96.6963H24.5V99.1263ZM24.5 95.8863H8.57V95.0763H24.5V95.8863ZM24.5 92.6463H8.57V91.8363H24.5V92.6463Z" fill="black"/>
<path d="M12.078 138.303C12.078 136.126 12.5073 134.554 13.366 133.588C14.2093 132.622 15.5433 132.139 17.368 132.139C19.208 132.139 20.5573 132.622 21.416 133.588C22.2593 134.554 22.681 136.126 22.681 138.303V146.629H28.5V150.953H12.078V138.303ZM19.53 139.246C19.53 138.418 19.3613 137.82 19.024 137.452C18.6867 137.069 18.173 136.877 17.483 136.877C16.7777 136.877 16.264 137.069 15.942 137.452C15.6047 137.82 15.436 138.418 15.436 139.246V146.629H19.53V139.246ZM28.5 110.107V115.144L22.681 118.64V125.448H28.5V129.772H12.078V116.639C12.078 114.477 12.4997 112.913 13.343 111.947C14.1863 110.981 15.4973 110.498 17.276 110.498C18.6867 110.498 19.7447 110.828 20.45 111.487C21.1553 112.131 21.6307 113.028 21.876 114.178H22.037L28.5 110.107ZM19.392 117.467C19.392 116.701 19.2387 116.141 18.932 115.788C18.6253 115.436 18.1423 115.259 17.483 115.259C16.839 115.259 16.3637 115.436 16.057 115.788C15.735 116.141 15.574 116.701 15.574 117.467L15.574 125.448H19.392V117.467Z" fill="black"/>
</svg>
